HIERARCHY
ROOT Hips
{
	OFFSET 0.000000 0.000000 0.000000
	CHANNELS 6 Xposition Yposition Zposition Xrotation Yrotation Zrotation
	JOINT LeftUpLeg_virtual
	{
		OFFSET 0.000000 0.000000 0.000000
		CHANNELS 3 Xrotation Yrotation Zrotation
		JOINT LeftUpLeg
		{
			OFFSET 13.026900 -6.336304 -1.092800
			CHANNELS 3 Xrotation Yrotation Zrotation
			JOINT LeftLeg
			{
				OFFSET 0.524474 -46.096886 9.782700
				CHANNELS 3 Xrotation Yrotation Zrotation
				JOINT LeftFoot
				{
					OFFSET -0.524474 -53.427422 -12.948200
					CHANNELS 3 Xrotation Yrotation Zrotation
					JOINT LeftToeBase
					{
						OFFSET 0.192200 -14.009700 16.364100
						CHANNELS 3 Xrotation Yrotation Zrotation
						JOINT LeftToe_End
						{
							OFFSET -1.784700 -0.561700 9.474800
							CHANNELS 3 Xrotation Yrotation Zrotation
							End Site
							{
								OFFSET 0 0 0
							}
						}
					}
				}
			}
		}
	}
	JOINT RightUpLeg_virtual
	{
		OFFSET 0.000000 0.000000 0.000000
		CHANNELS 3 Xrotation Yrotation Zrotation
		JOINT RightUpLeg
		{
			OFFSET -12.883000 -6.336304 -1.092800
			CHANNELS 3 Xrotation Yrotation Zrotation
			JOINT RightLeg
			{
				OFFSET -0.524587 -46.096825 9.782800
				CHANNELS 3 Xrotation Yrotation Zrotation
				JOINT RightFoot
				{
					OFFSET 0.524587 -53.427383 -12.948300
					CHANNELS 3 Xrotation Yrotation Zrotation
					JOINT RightToeBase
					{
						OFFSET -0.192200 -14.009700 16.364100
						CHANNELS 3 Xrotation Yrotation Zrotation
						JOINT RightToe_End
						{
							OFFSET 1.784700 -0.561700 9.474800
							CHANNELS 3 Xrotation Yrotation Zrotation
							End Site
							{
								OFFSET 0 0 0
							}
						}
					}
				}
			}
		}
	}
	JOINT Spine_virtual
	{
		OFFSET 0.000000 0.000000 0.000000
		CHANNELS 3 Xrotation Yrotation Zrotation
		JOINT Spine
		{
			OFFSET 0.072000 7.257294 -0.789700
			CHANNELS 3 Xrotation Yrotation Zrotation
			JOINT Spine1
			{
				OFFSET 0.000000 12.508769 -0.658067
				CHANNELS 3 Xrotation Yrotation Zrotation
				JOINT Spine1_split
				{
					OFFSET 0.000000 12.508769 -0.658067
					CHANNELS 3 Xrotation Yrotation Zrotation
					JOINT Spine2
					{
						OFFSET 0.000000 12.508769 -0.658067
						CHANNELS 3 Xrotation Yrotation Zrotation
						JOINT Neck_virtual
						{
							OFFSET 0.000000 0.000000 0.000000
							CHANNELS 3 Xrotation Yrotation Zrotation
							JOINT Neck
							{
								OFFSET 0.000000 14.033295 7.520400
								CHANNELS 3 Xrotation Yrotation Zrotation
								JOINT Head
								{
									OFFSET 0.000000 8.198502 5.703100
									CHANNELS 3 Xrotation Yrotation Zrotation
									JOINT HeadTop_End
									{
										OFFSET 0.000000 17.760803 13.332701
										CHANNELS 3 Xrotation Yrotation Zrotation
										End Site
										{
											OFFSET 0 0 0
										}
									}
								}
							}
						}
						JOINT LeftShoulder_virtual
						{
							OFFSET 0.000000 0.000000 0.000000
							CHANNELS 3 Xrotation Yrotation Zrotation
							JOINT LeftShoulder
							{
								OFFSET 6.292450 5.785301 -0.669000
								CHANNELS 3 Xrotation Yrotation Zrotation
								JOINT LeftShoulder_split
								{
									OFFSET 6.292450 5.785301 -0.669000
									CHANNELS 3 Xrotation Yrotation Zrotation
									JOINT LeftArm
									{
										OFFSET 13.907140 -6.093903 1.965100
										CHANNELS 3 Xrotation Yrotation Zrotation
										JOINT LeftForeArm
										{
											OFFSET 34.140198 0.000000 0.000000
											CHANNELS 3 Xrotation Yrotation Zrotation
											JOINT LeftHand
											{
												OFFSET 40.960209 0.000000 0.000000
												CHANNELS 3 Xrotation Yrotation Zrotation
												End Site
												{
													OFFSET 0 0 0
												}
											}
										}
									}
								}
							}
						}
						JOINT RightShoulder_virtual
						{
							OFFSET 0.000000 0.000000 0.000000
							CHANNELS 3 Xrotation Yrotation Zrotation
							JOINT RightShoulder
							{
								OFFSET -6.292450 5.785301 -0.669000
								CHANNELS 3 Xrotation Yrotation Zrotation
								JOINT RightShoulder_split
								{
									OFFSET -6.292450 5.785301 -0.669000
									CHANNELS 3 Xrotation Yrotation Zrotation
									JOINT RightArm
									{
										OFFSET -13.907140 -6.093903 1.965100
										CHANNELS 3 Xrotation Yrotation Zrotation
										JOINT RightForeArm
										{
											OFFSET -34.140198 0.000000 0.000000
											CHANNELS 3 Xrotation Yrotation Zrotation
											JOINT RightHand
											{
												OFFSET -40.960209 0.000000 0.000000
												CHANNELS 3 Xrotation Yrotation Zrotation
												End Site
												{
													OFFSET 0 0 0
												}
											}
										}
									}
								}
							}
						}
					}
				}
			}
		}
	}
}
MOTION
Frames: 5
Frame Time: 0.03333333
0.349475 81.704514 5.275661 0.000000 0.000000 0.000000 -12.158787 -76.399013 -8.976499 -42.024368 14.462644 55.328357 40.675293 -3.645590 -3.853655 7.376875 -3.428336 -28.460177 -3.546787 0.191693 -0.467264 0.000000 0.000000 0.000000 -13.780188 -74.782525 -9.687271 -37.778439 5.651089 -31.415530 61.466744 12.862749 -5.613447 -15.985913 -6.498928 26.215803 2.871263 0.989051 1.045749 0.000000 0.000000 0.000000 -12.369607 -76.209659 -8.940953 4.560360 -2.071985 -2.003426 4.069091 -0.322969 -3.244367 0.472130 0.696471 0.287230 0.000000 0.000000 0.000000 5.792893 0.045727 -2.948825 -6.307471 21.107783 6.027931 0.725420 18.309639 -8.442522 0.000000 0.000000 0.000000 6.043357 -0.158584 -3.355914 -0.008358 -5.295036 -17.953361 -1.997181 -1.956827 -1.254303 -44.086743 -23.044560 -5.372508 -6.241645 -32.540613 -4.356914 0.000000 0.000000 0.000000 5.205498 -0.155214 -2.961277 2.078986 16.106573 5.399625 7.859608 3.394747 2.450128 18.992919 74.706342 -7.553174 76.676209 86.551447 -87.341946 0.000000 0.000000 0.000000 
0.308043 82.114685 5.108692 0.000000 0.000000 0.000000 -13.006405 -76.242834 -10.231466 -40.947534 14.160528 55.298601 40.392311 -3.543218 -3.896859 7.115732 -2.739265 -27.827089 -3.247469 0.135078 -0.442265 0.000000 0.000000 0.000000 -15.128857 -74.894541 -11.212843 -37.987081 5.791840 -31.042817 60.079409 13.041842 -5.390559 -15.545261 -6.379419 26.705326 2.598907 1.068544 1.018538 0.000000 0.000000 0.000000 -12.856090 -76.586761 -9.885452 4.064853 -1.955726 -1.768068 3.828715 -0.302990 -3.194693 -0.074216 0.849360 0.299774 0.000000 0.000000 0.000000 5.621852 -0.089673 -2.884289 -5.918180 21.216943 6.038982 1.304390 18.784221 -8.859301 0.000000 0.000000 0.000000 5.734818 -0.176752 -3.249416 -0.109486 -5.336485 -18.217708 -2.015990 -0.772457 -1.960200 -44.183787 -23.113439 -5.940674 -5.943335 -34.116358 -4.074724 0.000000 0.000000 0.000000 5.082412 -0.168034 -2.976490 2.090567 16.162953 5.217462 8.349146 1.436684 2.232336 17.867877 74.293279 -5.662717 64.879468 86.733314 -75.494620 0.000000 0.000000 0.000000 
0.485104 82.997269 4.781025 0.000000 0.000000 0.000000 -16.104746 -76.741355 -13.812694 -38.875842 13.849480 55.159334 39.072831 -3.187722 -4.121157 7.354943 -1.709787 -27.019791 -2.953770 0.024325 -0.483488 0.000000 0.000000 0.000000 -17.792271 -75.605386 -14.279666 -38.543861 5.904644 -30.696663 57.911022 13.482644 -5.097783 -13.843322 -5.255901 27.376414 2.819499 1.137258 1.084247 0.000000 0.000000 0.000000 -15.700289 -77.327946 -13.270147 3.580285 -1.531358 -1.152065 3.887625 -0.307470 -2.991085 -0.194894 0.411330 0.099859 0.000000 0.000000 0.000000 5.750639 -0.228037 -2.699186 -6.011060 21.470490 6.259783 2.160073 20.250452 -9.396611 0.000000 0.000000 0.000000 5.646336 -0.250814 -2.995248 -0.406330 -5.691492 -18.696454 -2.694483 0.080001 -2.193374 -42.181667 -21.797857 -7.319626 -5.923897 -35.843556 -4.342978 0.000000 0.000000 0.000000 5.134684 -0.163565 -2.810570 2.095577 15.618189 5.375155 7.537359 0.706961 2.172702 15.557651 71.751383 -1.340269 41.485674 86.049032 -51.750199 0.000000 0.000000 0.000000 
0.753534 84.233734 4.457203 0.000000 0.000000 0.000000 -21.358432 -77.760269 -19.525228 -36.043762 13.623807 54.909585 37.036011 -2.677748 -4.480508 8.181450 -0.779237 -26.210900 -3.617175 -0.162402 -0.290185 0.000000 0.000000 0.000000 -21.162535 -76.346229 -18.201343 -39.036898 5.947119 -30.324790 55.709652 13.829148 -4.761869 -11.473479 -3.650211 27.980625 3.321263 1.187092 1.293891 0.000000 0.000000 0.000000 -20.026924 -77.816065 -18.110429 3.267719 -0.898311 -0.312400 4.185580 -0.346414 -2.654728 0.341228 -0.403228 0.364076 0.000000 0.000000 0.000000 5.969827 -0.348989 -2.450614 -6.431569 21.674022 6.640871 3.256702 22.466975 -10.003111 0.000000 0.000000 0.000000 5.808263 -0.367730 -2.678443 -0.822464 -6.552378 -19.486231 -3.326750 0.459102 -2.110549 -37.778347 -19.855672 -9.488212 -6.055153 -38.542266 -5.000874 0.000000 0.000000 0.000000 5.365300 -0.124788 -2.521493 2.100317 14.754086 5.941878 5.838139 1.334497 2.067129 13.245389 67.403783 4.280608 23.750226 84.268238 -33.329400 0.000000 0.000000 0.000000 
0.972947 85.678818 4.398479 0.000000 0.000000 0.000000 -27.243205 -78.685897 -25.783537 -32.678623 13.553521 54.484388 34.728254 -2.055842 -4.866107 9.065898 -0.111839 -25.335306 -5.213310 -0.416309 0.211292 0.000000 0.000000 0.000000 -23.517118 -76.390434 -21.105331 -38.889502 5.787413 -29.876931 53.706734 13.686173 -4.439556 -9.100247 -2.428948 28.302373 3.281257 1.174357 1.617747 0.000000 0.000000 0.000000 -24.749759 -77.835497 -23.171323 3.249565 -0.238593 0.550831 4.571545 -0.437331 -2.221446 0.808392 -1.066887 1.007165 0.000000 0.000000 0.000000 6.085156 -0.477057 -2.171629 -6.894087 21.890469 7.118374 4.528498 24.826131 -10.552399 0.000000 0.000000 0.000000 6.148852 -0.550826 -2.368921 -1.296448 -7.929352 -20.543484 -2.927345 0.440051 -1.888785 -30.663397 -18.200745 -11.937142 -6.080415 -42.953089 -5.689548 0.000000 0.000000 0.000000 5.677207 -0.080077 -2.156587 2.031214 13.632491 7.028727 3.772976 2.772533 1.911770 11.767552 62.005454 9.862496 13.121890 81.220088 -21.688137 0.000000 0.000000 0.000000 
